# xmcd
#
# Track frame offsets: 
#        150
#        15495
#        33646
#        49894
#        61505
#        80412
#        97508
#        126516
#        144543
#        170567
#        187511
#
# Disc length: 2753 seconds
#
# Revision: 0
# Processed by: cddbd v1.5.2PL0 Copyright (c) Steve Scherf et al.
# Submitted via: ExactAudioCopy v1.0b6
#
DISCID=810abf0b
DTITLE=Red Bananas Blues Band - Straight Away Blues
DYEAR=2015
DGENRE=Blues
TTITLE0=Every Day
TTITLE1=Wetzlar Treppeblues
TTITLE2=Feel So Alone
TTITLE3=I'm On The Run
TTITLE4=A Good Place To Go
TTITLE5=Every Monday Morning
TTITLE6=Mean Old World
TTITLE7=Be Yourself
TTITLE8=Schwachsinn
TTITLE9=Dream Away
TTITLE10=Got My Mojo Workin'
EXTD=
EXTT0=
EXTT1=
EXTT2=
EXTT3=
EXTT4=
EXTT5=
EXTT6=
EXTT7=
EXTT8=
EXTT9=
EXTT10=
PLAYORDER=
